# xmcd
#
# Track frame offsets: 
#        150
#        17416
#        34972
#        49800
#        69796
#        87476
#        106350
#        121131
#        142589
#        159534
#        176553
#        191710
#
# Disc length: 2741 seconds
#
# Revision: 0
# Processed by: cddbd v1.5.2PL0 Copyright (c) Steve Scherf et al.
# Submitted via: ExactAudioCopy v0.95b4
#
DISCID=950ab30c
DTITLE=The Rasmus - Black Roses [UK version]
DYEAR=2008
DGENRE=Rock
TTITLE0=Livin' in a World Without You
TTITLE1=Ten Black Roses
TTITLE2=Ghost of Love
TTITLE3=Justify
TTITLE4=Your Forgiveness
TTITLE5=Run to You
TTITLE6=You Got It Wrong
TTITLE7=Lost and Lonely
TTITLE8=The Fight
TTITLE9=Dangerous Kind
TTITLE10=Live Forever
TTITLE11=Yesterday You Threw Away Tomorrow
EXTD=
EXTT0=
EXTT1=
EXTT2=
EXTT3=
EXTT4=
EXTT5=
EXTT6=
EXTT7=
EXTT8=
EXTT9=
EXTT10=
EXTT11=
PLAYORDER=
